HIERARCHY
ROOT reference
{
  OFFSET 0 0 0
  CHANNELS 6 Xposition Yposition Zposition Zrotation Xrotation Yrotation
  JOINT Hips
  {
    OFFSET 355.919 86.4685 225.794
    CHANNELS 3 Zrotation Xrotation Yrotation
    JOINT RightUpLeg
    {
      OFFSET -9.27022 -1.53975 0.0125073
      CHANNELS 3 Zrotation Xrotation Yrotation
      JOINT RightLeg
      {
        OFFSET 0.013591 -41.8786 0.0152335
        CHANNELS 3 Zrotation Xrotation Yrotation
        JOINT RightFoot
        {
          OFFSET -0.635566 -43.1371 -0.638083
          CHANNELS 3 Zrotation Xrotation Yrotation
          End Site
          {
            OFFSET 0 -7.69 17.5
          }
        }
      }
    }
    JOINT LeftUpLeg
    {
      OFFSET 9.3307 -1.62449 -0.0651281
      CHANNELS 3 Zrotation Xrotation Yrotation
      JOINT LeftLeg
      {
        OFFSET 0.136006 -41.8606 -0.0682192
        CHANNELS 3 Zrotation Xrotation Yrotation
        JOINT LeftFoot
        {
          OFFSET 0.555276 -40.3296 1.11688
          CHANNELS 3 Zrotation Xrotation Yrotation
          End Site
          {
            OFFSET 0 -7.69 17.5
          }
        }
      }
    }
    JOINT Spine
    {
      OFFSET 0.0523142 14.2998 0.0636653
      CHANNELS 3 Zrotation Xrotation Yrotation
      JOINT Spine1
      {
        OFFSET 0.0411785 9.71676 0.0113233
        CHANNELS 3 Zrotation Xrotation Yrotation
        JOINT Spine2
        {
          OFFSET 0.0674534 10.1151 -0.00111457
          CHANNELS 3 Zrotation Xrotation Yrotation
          JOINT Spine3
          {
            OFFSET 0.048863 9.72171 0.0174249
            CHANNELS 3 Zrotation Xrotation Yrotation
            JOINT Neck
            {
              OFFSET 0.180558 10.3768 0.0617075
              CHANNELS 3 Zrotation Xrotation Yrotation
              JOINT Head
              {
                OFFSET 0.135918 9.47305 0.0380206
                CHANNELS 3 Zrotation Xrotation Yrotation
                End Site
                {
                  OFFSET 0 15.95 0
                }
              }
            }
            JOINT RightShoulder
            {
              OFFSET -3.15694 6.89408 0.00348883
              CHANNELS 3 Zrotation Xrotation Yrotation
              JOINT RightArm
              {
                OFFSET -12.7409 -0.0031918 0.045926
                CHANNELS 3 Zrotation Xrotation Yrotation
                JOINT RightForeArm
                {
                  OFFSET -26.5086 -0.0806184 0.00400063
                  CHANNELS 3 Zrotation Xrotation Yrotation
                  JOINT RightHand
                  {
                    OFFSET -26.0338 -0.025514 0.155859
                    CHANNELS 3 Zrotation Xrotation Yrotation
                    JOINT RightHandThumb1
                    {
                      OFFSET -2.48905 0.190105 3.12053
                      CHANNELS 3 Zrotation Xrotation Yrotation
                      JOINT RightHandThumb2
                      {
                        OFFSET -3.68274 0 0
                        CHANNELS 3 Zrotation Xrotation Yrotation
                        JOINT RightHandThumb3
                        {
                          OFFSET -2.55832 0 0
                          CHANNELS 3 Zrotation Xrotation Yrotation
                          End Site
                          {
                            OFFSET -2.194 0 0
                          }
                        }
                      }
                    }
                    JOINT RightInHandIndex
                    {
                      OFFSET -3.22368 0.508421 1.97842
                      CHANNELS 3 Zrotation Xrotation Yrotation
                      JOINT RightHandIndex1
                      {
                        OFFSET -5.21684 -0.091368 0.999158
                        CHANNELS 3 Zrotation Xrotation Yrotation
                        JOINT RightHandIndex2
                        {
                          OFFSET -3.61937 0 0
                          CHANNELS 3 Zrotation Xrotation Yrotation
                          JOINT RightHandIndex3
                          {
                            OFFSET -2.0521 0 0
                            CHANNELS 3 Zrotation Xrotation Yrotation
                            End Site
                            {
                              OFFSET -1.805 0 0
                            }
                          }
                        }
                      }
                    }
                    JOINT RightInHandMiddle
                    {
                      OFFSET -3.38211 0.517263 0.756737
                      CHANNELS 3 Zrotation Xrotation Yrotation
                      JOINT RightHandMiddle1
                      {
                        OFFSET -5.17411 -0.084 0.313895
                        CHANNELS 3 Zrotation Xrotation Yrotation
                        JOINT RightHandMiddle2
                        {
                          OFFSET -3.94947 0 0
                          CHANNELS 3 Zrotation Xrotation Yrotation
                          JOINT RightHandMiddle3
                          {
                            OFFSET -2.47579 0 0
                            CHANNELS 3 Zrotation Xrotation Yrotation
                            End Site
                            {
                              OFFSET -1.975 0 0
                            }
                          }
                        }
                      }
                    }
                    JOINT RightInHandRing
                    {
                      OFFSET -3.36516 0.537895 -0.128947
                      CHANNELS 3 Zrotation Xrotation Yrotation
                      JOINT RightHandRing1
                      {
                        OFFSET -4.63474 -0.022105 -0.478947
                        CHANNELS 3 Zrotation Xrotation Yrotation
                        JOINT RightHandRing2
                        {
                          OFFSET -3.44238 0 0
                          CHANNELS 3 Zrotation Xrotation Yrotation
                          JOINT RightHandRing3
                          {
                            OFFSET -2.3881 0 0
                            CHANNELS 3 Zrotation Xrotation Yrotation
                            End Site
                            {
                              OFFSET -1.857 0 0
                            }
                          }
                        }
                      }
                    }
                    JOINT RightInHandPinky
                    {
                      OFFSET -3.16105 0.469368 -1.20179
                      CHANNELS 3 Zrotation Xrotation Yrotation
                      JOINT RightHandPinky1
                      {
                        OFFSET -4.14105 -0.022105 -1.09053
                        CHANNELS 3 Zrotation Xrotation Yrotation
                        JOINT RightHandPinky2
                        {
                          OFFSET -2.75653 0 0
                          CHANNELS 3 Zrotation Xrotation Yrotation
                          JOINT RightHandPinky3
                          {
                            OFFSET -1.74189 0 0
                            CHANNELS 3 Zrotation Xrotation Yrotation
                            End Site
                            {
                              OFFSET -1.645 0 0
                            }
                          }
                        }
                      }
                    }
                  }
                }
              }
            }
            JOINT LeftShoulder
            {
              OFFSET 3.22505 6.94333 0.022328
              CHANNELS 3 Zrotation Xrotation Yrotation
              JOINT LeftArm
              {
                OFFSET 12.8536 -0.0213048 -0.00476292
                CHANNELS 3 Zrotation Xrotation Yrotation
                JOINT LeftForeArm
                {
                  OFFSET 26.4992 -0.0497473 -0.102272
                  CHANNELS 3 Zrotation Xrotation Yrotation
                  JOINT LeftHand
                  {
                    OFFSET 25.9818 -0.0182282 -0.0189166
                    CHANNELS 3 Zrotation Xrotation Yrotation
                    JOINT LeftHandThumb1
                    {
                      OFFSET 2.48905 0.190105 3.12053
                      CHANNELS 3 Zrotation Xrotation Yrotation
                      JOINT LeftHandThumb2
                      {
                        OFFSET 3.68274 0 0
                        CHANNELS 3 Zrotation Xrotation Yrotation
                        JOINT LeftHandThumb3
                        {
                          OFFSET 2.55832 0 0
                          CHANNELS 3 Zrotation Xrotation Yrotation
                          End Site
                          {
                            OFFSET 2.194 0 0
                          }
                        }
                      }
                    }
                    JOINT LeftInHandIndex
                    {
                      OFFSET 3.22368 0.508421 1.97842
                      CHANNELS 3 Zrotation Xrotation Yrotation
                      JOINT LeftHandIndex1
                      {
                        OFFSET 5.21684 -0.091368 0.999158
                        CHANNELS 3 Zrotation Xrotation Yrotation
                        JOINT LeftHandIndex2
                        {
                          OFFSET 3.61937 0 0
                          CHANNELS 3 Zrotation Xrotation Yrotation
                          JOINT LeftHandIndex3
                          {
                            OFFSET 2.0521 0 0
                            CHANNELS 3 Zrotation Xrotation Yrotation
                            End Site
                            {
                              OFFSET 1.805 0 0
                            }
                          }
                        }
                      }
                    }
                    JOINT LeftInHandMiddle
                    {
                      OFFSET 3.38211 0.517263 0.756737
                      CHANNELS 3 Zrotation Xrotation Yrotation
                      JOINT LeftHandMiddle1
                      {
                        OFFSET 5.17411 -0.084 0.313895
                        CHANNELS 3 Zrotation Xrotation Yrotation
                        JOINT LeftHandMiddle2
                        {
                          OFFSET 3.94947 0 0
                          CHANNELS 3 Zrotation Xrotation Yrotation
                          JOINT LeftHandMiddle3
                          {
                            OFFSET 2.47579 0 0
                            CHANNELS 3 Zrotation Xrotation Yrotation
                            End Site
                            {
                              OFFSET 1.975 0 0
                            }
                          }
                        }
                      }
                    }
                    JOINT LeftInHandRing
                    {
                      OFFSET 3.36516 0.537895 -0.128947
                      CHANNELS 3 Zrotation Xrotation Yrotation
                      JOINT LeftHandRing1
                      {
                        OFFSET 4.63474 -0.022105 -0.478947
                        CHANNELS 3 Zrotation Xrotation Yrotation
                        JOINT LeftHandRing2
                        {
                          OFFSET 3.44238 0 0
                          CHANNELS 3 Zrotation Xrotation Yrotation
                          JOINT LeftHandRing3
                          {
                            OFFSET 2.3881 0 0
                            CHANNELS 3 Zrotation Xrotation Yrotation
                            End Site
                            {
                              OFFSET 1.857 0 0
                            }
                          }
                        }
                      }
                    }
                    JOINT LeftInHandPinky
                    {
                      OFFSET 3.16105 0.469368 -1.20179
                      CHANNELS 3 Zrotation Xrotation Yrotation
                      JOINT LeftHandPinky1
                      {
                        OFFSET 4.14105 -0.022105 -1.09053
                        CHANNELS 3 Zrotation Xrotation Yrotation
                        JOINT LeftHandPinky2
                        {
                          OFFSET 2.75653 0 0
                          CHANNELS 3 Zrotation Xrotation Yrotation
                          JOINT LeftHandPinky3
                          {
                            OFFSET 1.74189 0 0
                            CHANNELS 3 Zrotation Xrotation Yrotation
                            End Site
                            {
                              OFFSET 1.645 0 0
                            }
                          }
                        }
                      }
                    }
                  }
                }
              }
            }
          }
        }
      }
    }
  }
}
MOTION
Frames: 2
Frame Time: 0.00833333
1.500000000000000000e+02 0.000000000000000000e+00 0.000000000000000000e+00 0.000000000000000000e+00 0.000000000000000000e+00 -0.000000000000000000e+00 -6.811002168262393630e-03 1.878557129194555891e-02 4.456108073892490334e-02 -5.194640878973239007e-02 2.359098666595683610e-02 -5.709729317805749965e-02 8.490010905830548682e-03 3.698513296876979224e-03 -8.114006340226426889e-03 1.006306495524840125e-02 -6.736941952455893431e-03 -1.441923714138514286e-02 -1.849632078382444991e-02 -2.870971870357818742e-02 -4.390801197668883771e-02 -6.766792381615620300e-02 -7.664209271864075301e-02 2.051995982937732943e-01 1.723752803155865695e-02 1.251310416457336039e-01 -1.522054033937211837e-01 -4.650930655186075700e-03 9.428603964194738618e-03 1.348387680233353175e-02 -1.203059989511786774e-03 2.900482826220496767e-03 3.207772818067714058e-03 -2.049169240579422260e-03 4.701881273776143018e-03 5.015860069817407521e-03 1.932753961284365204e-03 -5.766130676802364323e-04 -3.025829910038703528e-03 1.941970760305500743e-03 -6.059732318797442403e-04 -3.052849427302428524e-03 3.115516624361627102e-02 -2.583365704405429179e-03 -5.467456839315402994e-02 -2.180474643908962215e-02 -7.985725423096522169e-02 7.283346766552475926e-02 9.575973272656870816e-03 -8.736307913598635733e-02 -4.599913669519557768e-02 -1.082105703703860888e-01 1.194057669871333160e-01 -2.617962995038750629e-01 -1.310984219434040976e-01 2.146691933133076102e-01 -2.792497760877047375e-01 0.000000000000000000e+00 0.000000000000000000e+00 0.000000000000000000e+00 7.681885905409704991e-15 -1.929584378129974547e-15 0.000000000000000000e+00 2.788249005890901324e-15 -1.588125947101750645e-15 0.000000000000000000e+00 -3.079673000068040495e-15 2.494482092865736698e-15 -3.884758197262896386e-15 0.000000000000000000e+00 0.000000000000000000e+00 0.000000000000000000e+00 0.000000000000000000e+00 1.606220467404432865e-15 3.656324105891260050e-15 0.000000000000000000e+00 -5.847361955361871860e-15 -1.947536308375254943e-14 -3.079673000068040495e-15 2.494482092865736698e-15 -3.884758197262896386e-15 0.000000000000000000e+00 -2.857584381201624665e-15 6.413727648431999147e-15 0.000000000000000000e+00 1.615253834032154165e-16 -2.825771709693966787e-15 0.000000000000000000e+00 -5.303281839450936370e-15 -2.842696749024662334e-14 -3.079673000068040495e-15 2.494482092865736698e-15 -3.884758197262896386e-15 0.000000000000000000e+00 0.000000000000000000e+00 0.000000000000000000e+00 0.000000000000000000e+00 7.159016899686017470e-15 -1.321773422819605689e-14 0.000000000000000000e+00 -4.182679294827714047e-15 -2.328247728506161409e-14 -3.079673000068040495e-15 2.494482092865736698e-15 -3.884758197262896386e-15 0.000000000000000000e+00 0.000000000000000000e+00 0.000000000000000000e+00 0.000000000000000000e+00 3.598065319271437812e-15 -5.351742711504849967e-15 0.000000000000000000e+00 4.163229819400083844e-16 -2.269907560045134169e-15 -4.331202149021839976e-02 3.281805472081300579e-02 1.596821740872270690e-01 2.008572768672279574e-01 1.015060572535813055e-01 -2.251071470936066299e-01 1.389120245479255333e-01 -2.064358365605483414e-01 1.662463566989455521e-01 -1.445188800453358659e-02 -7.322978283140615385e-01 -2.786019985208378347e-01 0.000000000000000000e+00 0.000000000000000000e+00 0.000000000000000000e+00 2.631986203894952887e-15 2.512830071772886627e-15 0.000000000000000000e+00 4.641134436804348663e-15 -9.653454848291865896e-16 0.000000000000000000e+00 1.572059139015742495e-15 -2.106195155352288588e-15 -4.918558093212828858e-15 0.000000000000000000e+00 0.000000000000000000e+00 0.000000000000000000e+00 0.000000000000000000e+00 -2.964359467971173218e-15 4.747066088881621598e-15 0.000000000000000000e+00 3.891430720161037845e-16 -3.596958573316033848e-15 1.572059139015742495e-15 -2.106195155352288588e-15 -4.918558093212828858e-15 0.000000000000000000e+00 -2.707299697407703361e-15 -1.890813189470311328e-15 0.000000000000000000e+00 -2.409357386388796570e-15 8.500822531095808547e-15 0.000000000000000000e+00 -7.517873196168554095e-16 5.621576673602053216e-15 1.572059139015742495e-15 -2.106195155352288588e-15 -4.918558093212828858e-15 0.000000000000000000e+00 0.000000000000000000e+00 0.000000000000000000e+00 0.000000000000000000e+00 -4.063963398135535980e-15 1.071607072904981198e-14 0.000000000000000000e+00 5.289355940744493955e-16 6.653419171152298689e-15 1.572059139015742495e-15 -2.106195155352288588e-15 -4.918558093212828858e-15 0.000000000000000000e+00 0.000000000000000000e+00 0.000000000000000000e+00 0.000000000000000000e+00 -1.174153283475636701e-15 8.680096383244544512e-15 0.000000000000000000e+00 -9.772372748669280176e-16 6.644561173914784389e-15
1.500000000000000000e+02 0.000000000000000000e+00 0.000000000000000000e+00 0.000000000000000000e+00 0.000000000000000000e+00 -0.000000000000000000e+00 -2.667697044516959036e-04 -8.987901255495072544e-03 -1.201346451607949659e-02 7.780354699195732304e-03 -5.667900272958251509e-03 6.233434257844606974e-02 1.471358681294405828e-02 1.346898136962229337e-03 -1.619592130271719360e-02 1.277577400674412104e-02 -2.670827078337869361e-03 -2.738571554019171572e-02 5.408461487366621710e-03 1.457307570842308192e-02 -2.687939997124283789e-02 -1.115817257916452108e-02 4.383977753639479308e-02 -3.110269854819998001e-02 2.265684021026698192e-03 -7.058557622578820467e-02 6.224324642676329344e-02 -2.980278469482610607e-03 -2.576844966615152947e-03 5.204701242911164436e-04 -1.078050898876429988e-04 -4.156939578739414260e-04 6.374619250621304677e-05 -1.471445541005028256e-05 -5.939618538804331037e-04 -6.568457294325672489e-05 -1.812709492510609791e-04 -2.059356693074494422e-04 6.918924673427527625e-04 -1.841271555649452512e-04 -2.029736415524111405e-04 7.093100873749033164e-04 -2.247288680033743356e-03 5.033319569881496234e-04 1.238409175843137484e-02 9.071075486928846521e-02 1.072728325159821722e-01 -2.646458272808834833e-01 -5.045169961813843890e-02 1.477576567141173913e-01 9.593630241779585455e-02 -1.983714363014435489e-01 6.633621194661705467e-02 -4.854860081472613387e-01 5.633149215189848791e-01 -4.533706702203645911e-01 1.093918660583639957e+00 0.000000000000000000e+00 0.000000000000000000e+00 0.000000000000000000e+00 2.164013955257990167e-14 -3.984537032472397755e-15 0.000000000000000000e+00 5.586635015655065074e-15 -4.213674478726580965e-15 0.000000000000000000e+00 -8.084011809456992978e-15 1.689538883505685283e-15 4.868505468419186573e-15 0.000000000000000000e+00 0.000000000000000000e+00 0.000000000000000000e+00 0.000000000000000000e+00 8.200348447242700301e-15 1.770038614203334220e-14 0.000000000000000000e+00 4.305333783944670951e-16 -2.241347361823372334e-14 -8.084011809456992978e-15 1.689538883505685283e-15 4.868505468419186573e-15 0.000000000000000000e+00 7.594074049841463432e-15 -4.589970252950468241e-15 0.000000000000000000e+00 4.547171684847677844e-15 1.116365872808826569e-14 0.000000000000000000e+00 -7.091940923826229852e-15 -4.478849914863599453e-15 -8.084011809456992978e-15 1.689538883505685283e-15 4.868505468419186573e-15 0.000000000000000000e+00 0.000000000000000000e+00 0.000000000000000000e+00 0.000000000000000000e+00 1.089080104681414026e-14 -7.330984302454439607e-15 0.000000000000000000e+00 2.779086431639684679e-15 -3.385062357487677160e-14 -8.084011809456992978e-15 1.689538883505685283e-15 4.868505468419186573e-15 0.000000000000000000e+00 0.000000000000000000e+00 0.000000000000000000e+00 0.000000000000000000e+00 4.436283783260972390e-15 -1.675228340770324598e-14 0.000000000000000000e+00 -8.751276285310959858e-15 -1.948521364675187733e-14 8.170776633880527662e-02 -7.510781360562160391e-02 -2.537601459081962330e-01 -1.843526314380837250e-01 -8.802787029627019699e-02 1.759687613631626124e-01 1.117495012003374699e-01 -3.193684394133671466e-03 9.230451395718973495e-02 1.114963370592501890e-02 1.919625746723121751e-01 7.844037192422426141e-02 0.000000000000000000e+00 0.000000000000000000e+00 0.000000000000000000e+00 -7.178986180090473495e-16 -5.027253966553001936e-15 0.000000000000000000e+00 2.838834426828844650e-15 -4.511748338884812879e-15 0.000000000000000000e+00 -6.577814083110246963e-15 1.960591373920540016e-15 7.266598254449204402e-15 0.000000000000000000e+00 0.000000000000000000e+00 0.000000000000000000e+00 0.000000000000000000e+00 2.296950415971909279e-15 1.280426718066762700e-14 0.000000000000000000e+00 -5.016857283254691525e-15 -1.716446054871898727e-14 -6.577814083110246963e-15 1.960591373920540016e-15 7.266598254449204402e-15 0.000000000000000000e+00 2.354527590749991817e-15 7.957033600867167170e-15 0.000000000000000000e+00 -9.515028280701428919e-15 2.342416203280183476e-14 0.000000000000000000e+00 4.794524783331330398e-16 -7.665510456244827349e-15 -6.577814083110246963e-15 1.960591373920540016e-15 7.266598254449204402e-15 0.000000000000000000e+00 0.000000000000000000e+00 0.000000000000000000e+00 0.000000000000000000e+00 -5.041840833063406971e-15 3.117943928254947162e-14 0.000000000000000000e+00 9.119178444315437047e-16 1.111932021699340512e-14 -6.577814083110246963e-15 1.960591373920540016e-15 7.266598254449204402e-15 0.000000000000000000e+00 0.000000000000000000e+00 0.000000000000000000e+00 0.000000000000000000e+00 1.767728502281076412e-15 1.061658285548159221e-14 0.000000000000000000e+00 7.385605016088748577e-15 -1.851734666736047697e-14
